<svg width="48" height="34" viewBox="0 0 48 34" fill="none" xmlns="http://www.w3.org/2000/svg">
<path d="M46.997 5.28073C46.445 3.20212 44.8184 1.56507 42.7533 1.00951C39.01 0 24 0 24 0C24 0 8.99006 0 5.24671 1.00951C3.18155 1.56515 1.55505 3.20212 1.00301 5.28073C0 9.04833 0 16.9091 0 16.9091C0 16.9091 0 24.7698 1.00301 28.5374C1.55505 30.616 3.18155 32.1849 5.24671 32.7404C8.99006 33.75 24 33.75 24 33.75C24 33.75 39.0099 33.75 42.7533 32.7404C44.8184 32.1849 46.445 30.616 46.997 28.5374C48 24.7698 48 16.9091 48 16.9091C48 16.9091 48 9.04833 46.997 5.28073ZM19.0909 24.0461V9.77211L31.6363 16.9093L19.0909 24.0461Z" fill="#FCFCFC"/>
</svg>
